<svg xmlns="http://www.w3.org/2000/svg" xmlns:xlink="http://www.w3.org/1999/xlink" width="300" zoomAndPan="magnify" viewBox="0 0 224.87999 67.499998" height="90" preserveAspectRatio="xMidYMid meet" version="1.0"><defs><g/><clipPath id="a1da6a18cb"><path d="M 6.613281 1.445312 L 70.640625 1.445312 L 70.640625 65.46875 L 6.613281 65.46875 Z M 6.613281 1.445312 " clip-rule="nonzero"/></clipPath><clipPath id="d423b281f8"><path d="M 12.078125 10.820312 L 44.089844 10.820312 L 44.089844 56.976562 L 12.078125 56.976562 Z M 12.078125 10.820312 " clip-rule="nonzero"/></clipPath><clipPath id="046a497135"><path d="M 34.804688 10.820312 L 72.773438 10.820312 L 72.773438 49 L 34.804688 49 Z M 34.804688 10.820312 " clip-rule="nonzero"/></clipPath><clipPath id="f0e35c45e2"><path d="M 37 19 L 61 19 L 61 56.976562 L 37 56.976562 Z M 37 19 " clip-rule="nonzero"/></clipPath></defs><g fill="#ffffff" fill-opacity="1"><g transform="translate(80.115074, 43.071088)"><g><path d="M 8.953125 -18.765625 C 10.484375 -18.765625 11.816406 -18.492188 12.953125 -17.953125 C 14.097656 -17.410156 15.050781 -16.679688 15.8125 -15.765625 C 16.570312 -14.859375 17.140625 -13.84375 17.515625 -12.71875 C 17.898438 -11.59375 18.09375 -10.445312 18.09375 -9.28125 C 18.09375 -8.101562 17.898438 -6.960938 17.515625 -5.859375 C 17.140625 -4.765625 16.570312 -3.773438 15.8125 -2.890625 C 15.050781 -2.003906 14.097656 -1.300781 12.953125 -0.78125 C 11.816406 -0.257812 10.484375 0 8.953125 0 L 2.28125 0 L 2.28125 -18.765625 Z M 8.953125 -2.6875 C 10.390625 -2.6875 11.585938 -3.003906 12.546875 -3.640625 C 13.515625 -4.273438 14.238281 -5.097656 14.71875 -6.109375 C 15.195312 -7.117188 15.4375 -8.175781 15.4375 -9.28125 C 15.4375 -10.113281 15.300781 -10.925781 15.03125 -11.71875 C 14.757812 -12.519531 14.351562 -13.25 13.8125 -13.90625 C 13.269531 -14.570312 12.59375 -15.097656 11.78125 -15.484375 C 10.976562 -15.878906 10.035156 -16.078125 8.953125 -16.078125 L 4.96875 -16.078125 L 4.96875 -2.6875 Z M 8.953125 -2.6875 "/></g></g></g><g fill="#ffffff" fill-opacity="1"><g transform="translate(99.385934, 43.071088)"><g><path d="M 16.109375 -7.8125 C 16.128906 -7.738281 16.140625 -7.664062 16.140625 -7.59375 C 16.140625 -7.53125 16.140625 -7.453125 16.140625 -7.359375 C 16.140625 -7.078125 16.109375 -6.8125 16.046875 -6.5625 L 3.875 -6.5625 C 3.875 -5.625 4.125 -4.816406 4.625 -4.140625 C 5.132812 -3.472656 5.765625 -2.957031 6.515625 -2.59375 C 7.273438 -2.226562 8.007812 -2.046875 8.71875 -2.046875 C 9.601562 -2.046875 10.429688 -2.238281 11.203125 -2.625 C 11.972656 -3.019531 12.570312 -3.625 13 -4.4375 L 15.6875 -4.4375 C 15.332031 -3.394531 14.789062 -2.519531 14.0625 -1.8125 C 13.332031 -1.113281 12.5 -0.59375 11.5625 -0.25 C 10.632812 0.09375 9.675781 0.265625 8.6875 0.265625 C 7.769531 0.265625 6.867188 0.109375 5.984375 -0.203125 C 5.097656 -0.515625 4.300781 -0.976562 3.59375 -1.59375 C 2.882812 -2.21875 2.320312 -2.992188 1.90625 -3.921875 C 1.488281 -4.847656 1.28125 -5.929688 1.28125 -7.171875 C 1.28125 -8.410156 1.488281 -9.488281 1.90625 -10.40625 C 2.320312 -11.332031 2.882812 -12.101562 3.59375 -12.71875 C 4.300781 -13.34375 5.097656 -13.8125 5.984375 -14.125 C 6.867188 -14.4375 7.789062 -14.59375 8.75 -14.59375 C 9.9375 -14.59375 11.070312 -14.335938 12.15625 -13.828125 C 13.25 -13.328125 14.15625 -12.578125 14.875 -11.578125 C 15.601562 -10.578125 16.015625 -9.320312 16.109375 -7.8125 Z M 13.375 -8.71875 C 13.207031 -9.582031 12.890625 -10.273438 12.421875 -10.796875 C 11.953125 -11.328125 11.394531 -11.710938 10.75 -11.953125 C 10.101562 -12.191406 9.4375 -12.3125 8.75 -12.3125 C 8.050781 -12.3125 7.367188 -12.191406 6.703125 -11.953125 C 6.046875 -11.710938 5.472656 -11.328125 4.984375 -10.796875 C 4.492188 -10.265625 4.160156 -9.570312 3.984375 -8.71875 Z M 13.375 -8.71875 "/></g></g></g><g fill="#ffffff" fill-opacity="1"><g transform="translate(116.92906, 43.071088)"><g><path d="M 11.375 -14.375 L 14.140625 -14.375 L 8.3125 0.109375 L 6.25 0.109375 L 0.40625 -14.375 L 3.15625 -14.375 L 5.53125 -8.53125 L 7.28125 -3.484375 L 9.03125 -8.484375 Z M 11.375 -14.375 "/></g></g></g><g fill="#ffffff" fill-opacity="1"><g transform="translate(131.521748, 43.071088)"><g><path d="M 16.109375 -7.8125 C 16.128906 -7.738281 16.140625 -7.664062 16.140625 -7.59375 C 16.140625 -7.53125 16.140625 -7.453125 16.140625 -7.359375 C 16.140625 -7.078125 16.109375 -6.8125 16.046875 -6.5625 L 3.875 -6.5625 C 3.875 -5.625 4.125 -4.816406 4.625 -4.140625 C 5.132812 -3.472656 5.765625 -2.957031 6.515625 -2.59375 C 7.273438 -2.226562 8.007812 -2.046875 8.71875 -2.046875 C 9.601562 -2.046875 10.429688 -2.238281 11.203125 -2.625 C 11.972656 -3.019531 12.570312 -3.625 13 -4.4375 L 15.6875 -4.4375 C 15.332031 -3.394531 14.789062 -2.519531 14.0625 -1.8125 C 13.332031 -1.113281 12.5 -0.59375 11.5625 -0.25 C 10.632812 0.09375 9.675781 0.265625 8.6875 0.265625 C 7.769531 0.265625 6.867188 0.109375 5.984375 -0.203125 C 5.097656 -0.515625 4.300781 -0.976562 3.59375 -1.59375 C 2.882812 -2.21875 2.320312 -2.992188 1.90625 -3.921875 C 1.488281 -4.847656 1.28125 -5.929688 1.28125 -7.171875 C 1.28125 -8.410156 1.488281 -9.488281 1.90625 -10.40625 C 2.320312 -11.332031 2.882812 -12.101562 3.59375 -12.71875 C 4.300781 -13.34375 5.097656 -13.8125 5.984375 -14.125 C 6.867188 -14.4375 7.789062 -14.59375 8.75 -14.59375 C 9.9375 -14.59375 11.070312 -14.335938 12.15625 -13.828125 C 13.25 -13.328125 14.15625 -12.578125 14.875 -11.578125 C 15.601562 -10.578125 16.015625 -9.320312 16.109375 -7.8125 Z M 13.375 -8.71875 C 13.207031 -9.582031 12.890625 -10.273438 12.421875 -10.796875 C 11.953125 -11.328125 11.394531 -11.710938 10.75 -11.953125 C 10.101562 -12.191406 9.4375 -12.3125 8.75 -12.3125 C 8.050781 -12.3125 7.367188 -12.191406 6.703125 -11.953125 C 6.046875 -11.710938 5.472656 -11.328125 4.984375 -10.796875 C 4.492188 -10.265625 4.160156 -9.570312 3.984375 -8.71875 Z M 13.375 -8.71875 "/></g></g></g><g fill="#ffffff" fill-opacity="1"><g transform="translate(149.064874, 43.071088)"><g><path d="M 2 0 L 2 -18.609375 L 4.59375 -18.609375 L 4.59375 0 Z M 2 0 "/></g></g></g><g fill="#ffffff" fill-opacity="1"><g transform="translate(155.656833, 43.071088)"><g><path d="M 16.875 -7.171875 C 16.875 -5.929688 16.65625 -4.847656 16.21875 -3.921875 C 15.789062 -2.992188 15.203125 -2.21875 14.453125 -1.59375 C 13.710938 -0.976562 12.875 -0.515625 11.9375 -0.203125 C 11.007812 0.109375 10.0625 0.265625 9.09375 0.265625 C 8.132812 0.265625 7.191406 0.109375 6.265625 -0.203125 C 5.347656 -0.515625 4.519531 -0.976562 3.78125 -1.59375 C 3.050781 -2.21875 2.46875 -2.992188 2.03125 -3.921875 C 1.59375 -4.847656 1.375 -5.929688 1.375 -7.171875 C 1.375 -8.410156 1.59375 -9.492188 2.03125 -10.421875 C 2.46875 -11.359375 3.054688 -12.132812 3.796875 -12.75 C 4.546875 -13.375 5.382812 -13.84375 6.3125 -14.15625 C 7.238281 -14.46875 8.191406 -14.625 9.171875 -14.625 C 10.140625 -14.625 11.082031 -14.46875 12 -14.15625 C 12.914062 -13.84375 13.738281 -13.375 14.46875 -12.75 C 15.207031 -12.132812 15.789062 -11.359375 16.21875 -10.421875 C 16.65625 -9.492188 16.875 -8.410156 16.875 -7.171875 Z M 3.984375 -7.171875 C 3.984375 -6.035156 4.234375 -5.09375 4.734375 -4.34375 C 5.242188 -3.59375 5.890625 -3.023438 6.671875 -2.640625 C 7.460938 -2.265625 8.285156 -2.078125 9.140625 -2.078125 C 10.003906 -2.078125 10.828125 -2.265625 11.609375 -2.640625 C 12.390625 -3.023438 13.03125 -3.597656 13.53125 -4.359375 C 14.039062 -5.117188 14.296875 -6.054688 14.296875 -7.171875 C 14.296875 -8.304688 14.046875 -9.253906 13.546875 -10.015625 C 13.054688 -10.773438 12.414062 -11.347656 11.625 -11.734375 C 10.832031 -12.117188 10.015625 -12.3125 9.171875 -12.3125 C 8.296875 -12.3125 7.460938 -12.117188 6.671875 -11.734375 C 5.890625 -11.347656 5.242188 -10.78125 4.734375 -10.03125 C 4.234375 -9.28125 3.984375 -8.328125 3.984375 -7.171875 Z M 3.984375 -7.171875 "/></g></g></g><g fill="#ffffff" fill-opacity="1"><g transform="translate(174.1037, 43.071088)"><g><path d="M 1.96875 4.203125 L 1.96875 -14.375 L 4.578125 -14.375 L 4.578125 -12.46875 C 5.085938 -13.25 5.796875 -13.800781 6.703125 -14.125 C 7.617188 -14.457031 8.53125 -14.625 9.4375 -14.625 C 11.101562 -14.625 12.476562 -14.269531 13.5625 -13.5625 C 14.65625 -12.863281 15.472656 -11.945312 16.015625 -10.8125 C 16.554688 -9.675781 16.828125 -8.457031 16.828125 -7.15625 C 16.828125 -5.851562 16.546875 -4.640625 15.984375 -3.515625 C 15.429688 -2.390625 14.601562 -1.484375 13.5 -0.796875 C 12.40625 -0.109375 11.039062 0.234375 9.40625 0.234375 C 8.519531 0.234375 7.648438 0.09375 6.796875 -0.1875 C 5.953125 -0.46875 5.210938 -1.035156 4.578125 -1.890625 L 4.578125 4.203125 Z M 4.578125 -7.203125 C 4.578125 -6.066406 4.8125 -5.117188 5.28125 -4.359375 C 5.75 -3.597656 6.351562 -3.023438 7.09375 -2.640625 C 7.84375 -2.265625 8.613281 -2.078125 9.40625 -2.078125 C 10.46875 -2.078125 11.359375 -2.320312 12.078125 -2.8125 C 12.796875 -3.3125 13.332031 -3.953125 13.6875 -4.734375 C 14.039062 -5.523438 14.21875 -6.347656 14.21875 -7.203125 C 14.21875 -8.066406 14.039062 -8.890625 13.6875 -9.671875 C 13.332031 -10.453125 12.800781 -11.085938 12.09375 -11.578125 C 11.382812 -12.078125 10.5 -12.328125 9.4375 -12.328125 C 8.632812 -12.328125 7.859375 -12.132812 7.109375 -11.75 C 6.367188 -11.375 5.757812 -10.8125 5.28125 -10.0625 C 4.8125 -9.3125 4.578125 -8.359375 4.578125 -7.203125 Z M 4.578125 -7.203125 "/></g></g></g><g fill="#ffffff" fill-opacity="1"><g transform="translate(192.417655, 43.071088)"><g><path d="M 16.109375 -7.8125 C 16.128906 -7.738281 16.140625 -7.664062 16.140625 -7.59375 C 16.140625 -7.53125 16.140625 -7.453125 16.140625 -7.359375 C 16.140625 -7.078125 16.109375 -6.8125 16.046875 -6.5625 L 3.875 -6.5625 C 3.875 -5.625 4.125 -4.816406 4.625 -4.140625 C 5.132812 -3.472656 5.765625 -2.957031 6.515625 -2.59375 C 7.273438 -2.226562 8.007812 -2.046875 8.71875 -2.046875 C 9.601562 -2.046875 10.429688 -2.238281 11.203125 -2.625 C 11.972656 -3.019531 12.570312 -3.625 13 -4.4375 L 15.6875 -4.4375 C 15.332031 -3.394531 14.789062 -2.519531 14.0625 -1.8125 C 13.332031 -1.113281 12.5 -0.59375 11.5625 -0.25 C 10.632812 0.09375 9.675781 0.265625 8.6875 0.265625 C 7.769531 0.265625 6.867188 0.109375 5.984375 -0.203125 C 5.097656 -0.515625 4.300781 -0.976562 3.59375 -1.59375 C 2.882812 -2.21875 2.320312 -2.992188 1.90625 -3.921875 C 1.488281 -4.847656 1.28125 -5.929688 1.28125 -7.171875 C 1.28125 -8.410156 1.488281 -9.488281 1.90625 -10.40625 C 2.320312 -11.332031 2.882812 -12.101562 3.59375 -12.71875 C 4.300781 -13.34375 5.097656 -13.8125 5.984375 -14.125 C 6.867188 -14.4375 7.789062 -14.59375 8.75 -14.59375 C 9.9375 -14.59375 11.070312 -14.335938 12.15625 -13.828125 C 13.25 -13.328125 14.15625 -12.578125 14.875 -11.578125 C 15.601562 -10.578125 16.015625 -9.320312 16.109375 -7.8125 Z M 13.375 -8.71875 C 13.207031 -9.582031 12.890625 -10.273438 12.421875 -10.796875 C 11.953125 -11.328125 11.394531 -11.710938 10.75 -11.953125 C 10.101562 -12.191406 9.4375 -12.3125 8.75 -12.3125 C 8.050781 -12.3125 7.367188 -12.191406 6.703125 -11.953125 C 6.046875 -11.710938 5.472656 -11.328125 4.984375 -10.796875 C 4.492188 -10.265625 4.160156 -9.570312 3.984375 -8.71875 Z M 13.375 -8.71875 "/></g></g></g><g fill="#ffffff" fill-opacity="1"><g transform="translate(209.960781, 43.071088)"><g><path d="M 4.578125 -12.59375 C 5.085938 -13.320312 5.691406 -13.847656 6.390625 -14.171875 C 7.085938 -14.503906 7.835938 -14.671875 8.640625 -14.671875 C 8.921875 -14.671875 9.203125 -14.648438 9.484375 -14.609375 C 9.765625 -14.578125 10.050781 -14.523438 10.34375 -14.453125 L 10.34375 -12.171875 C 9.914062 -12.296875 9.472656 -12.359375 9.015625 -12.359375 C 8.210938 -12.359375 7.472656 -12.15625 6.796875 -11.75 C 6.128906 -11.351562 5.59375 -10.8125 5.1875 -10.125 C 4.78125 -9.445312 4.578125 -8.664062 4.578125 -7.78125 L 4.578125 0 L 2 0 L 2 -14.359375 L 4.578125 -14.359375 Z M 4.578125 -12.59375 "/></g></g></g><g clip-path="url(#a1da6a18cb)"><path fill="#ffffff" d="M 38.667969 1.445312 C 21 1.445312 6.613281 15.828125 6.613281 33.496094 C 6.613281 51.164062 21 65.550781 38.667969 65.550781 C 56.335938 65.550781 70.71875 51.164062 70.71875 33.496094 C 70.71875 15.828125 56.335938 1.445312 38.667969 1.445312 Z M 38.667969 65.007812 C 21.296875 65.007812 7.15625 50.867188 7.15625 33.496094 C 7.15625 16.125 21.296875 1.988281 38.667969 1.988281 C 56.039062 1.988281 70.179688 16.125 70.179688 33.496094 C 70.179688 50.867188 56.039062 65.007812 38.667969 65.007812 Z M 38.667969 65.007812 " fill-opacity="1" fill-rule="nonzero"/></g><g clip-path="url(#d423b281f8)"><path fill="#ffffff" d="M 43.601562 48.308594 C 43.300781 47.375 42.960938 46.601562 42.597656 46.03125 L 42.445312 45.785156 L 25.933594 45.785156 L 25.933594 17.4375 C 25.933594 16.109375 25.769531 15.015625 25.460938 14.179688 C 25.128906 13.308594 24.628906 12.613281 23.964844 12.113281 C 23.324219 11.625 22.519531 11.285156 21.59375 11.101562 C 20.707031 10.929688 19.679688 10.839844 18.53125 10.839844 C 17.441406 10.839844 16.285156 10.921875 15.085938 11.101562 C 13.890625 11.277344 13.042969 11.410156 12.507812 11.503906 L 12.078125 11.585938 L 12.078125 49.820312 C 12.078125 52.054688 12.738281 53.851562 14.058594 55.171875 C 15.371094 56.492188 17.171875 57.15625 19.410156 57.15625 L 39 57.15625 C 40.5 57.15625 41.734375 56.699219 42.660156 55.796875 C 43.59375 54.894531 44.066406 53.371094 44.066406 51.28125 C 44.066406 50.261719 43.910156 49.257812 43.601562 48.308594 Z M 41.917969 55.03125 C 41.1875 55.742188 40.230469 56.089844 39 56.089844 L 19.410156 56.089844 C 17.441406 56.089844 15.9375 55.542969 14.816406 54.414062 C 13.691406 53.289062 13.140625 51.789062 13.140625 49.820312 L 13.140625 12.476562 C 13.652344 12.390625 14.347656 12.28125 15.242188 12.152344 C 16.382812 11.980469 17.488281 11.902344 18.53125 11.902344 C 19.609375 11.902344 20.566406 11.988281 21.386719 12.152344 C 22.15625 12.304688 22.8125 12.582031 23.332031 12.96875 C 23.832031 13.339844 24.210938 13.878906 24.464844 14.558594 C 24.734375 15.277344 24.867188 16.25 24.867188 17.445312 L 24.867188 46.859375 L 41.835938 46.859375 C 42.097656 47.328125 42.351562 47.929688 42.582031 48.648438 C 42.855469 49.488281 42.992188 50.386719 42.992188 51.296875 C 43 53.078125 42.636719 54.339844 41.917969 55.03125 Z M 41.917969 55.03125 " fill-opacity="1" fill-rule="nonzero"/></g><g clip-path="url(#046a497135)"><path fill="#ffffff" d="M 73.113281 10.824219 L 61.152344 10.824219 L 54.800781 35.335938 C 54.523438 36.40625 54.261719 37.683594 54.019531 39.15625 C 53.597656 36.832031 52.988281 34.183594 52.199219 31.242188 L 46.488281 10.824219 L 34.804688 10.824219 L 36.15625 15.234375 L 37.003906 15.035156 L 35.980469 11.691406 L 45.828125 11.691406 L 51.359375 31.472656 C 52.417969 35.40625 53.148438 38.816406 53.53125 41.601562 L 53.582031 41.976562 L 54.476562 41.976562 L 54.527344 41.601562 C 54.863281 39.152344 55.238281 37.117188 55.640625 35.554688 L 61.824219 11.691406 L 71.941406 11.691406 L 60.851562 48.613281 L 61.699219 48.8125 Z M 73.113281 10.824219 " fill-opacity="1" fill-rule="nonzero"/></g><g clip-path="url(#f0e35c45e2)"><path fill="#ffffff" d="M 58.542969 56.300781 L 49.613281 56.300781 L 38.226562 19.035156 L 37.375 19.234375 L 48.878906 56.863281 L 48.972656 57.171875 L 59.1875 57.171875 L 60.496094 52.820312 L 59.648438 52.621094 Z M 58.542969 56.300781 " fill-opacity="1" fill-rule="nonzero"/></g></svg>